<?xml version="1.0" standalone="no"?><!DOCTYPE svg PUBLIC "-//W3C//DTD SVG 1.1//EN"
        "http://www.w3.org/Graphics/SVG/1.1/DTD/svg11.dtd">
<svg class="icon" width="200px" height="200.00px" viewBox="0 0 1024 1024" version="1.1"
     xmlns="http://www.w3.org/2000/svg">
    <path d="M932.059429 102.4c24.722286 0 44.763429 20.041143 44.763428 44.763429v640a44.836571 44.836571 0 0 1-44.763428 44.763428H648.118857L545.865143 923.062857a44.836571 44.836571 0 0 1-60.489143-0.804571l-96.109714-90.331429H100.059429a44.836571 44.836571 0 0 1-44.836572-44.763428v-640c0-24.722286 20.114286-44.836571 44.836572-44.836572h832z m-44.836572 89.526857H144.822857v550.4h262.217143c11.410286 0 22.381714 4.388571 30.72 12.141714l79.067429 74.386286 84.406857-75.190857a44.836571 44.836571 0 0 1 29.842285-11.337143h256.146286V191.926857zM314.514286 403.163429a65.828571 65.828571 0 1 1 0 131.657142 65.828571 65.828571 0 0 1 0-131.657142z m197.485714 0a65.828571 65.828571 0 1 1 0 131.657142 65.828571 65.828571 0 0 1 0-131.657142z m197.485714 0a65.828571 65.828571 0 1 1 0 131.657142 65.828571 65.828571 0 0 1 0-131.657142z"/>
</svg>
