<?xml version="1.0" standalone="no"?><!DOCTYPE svg PUBLIC "-//W3C//DTD SVG 1.1//EN"
        "http://www.w3.org/Graphics/SVG/1.1/DTD/svg11.dtd">
<svg class="icon" width="200px" height="200.00px" viewBox="0 0 1024 1024" version="1.1"
     xmlns="http://www.w3.org/2000/svg">
    <path d="M667.062857 54.857143c24.722286 0 44.763429 20.041143 44.763429 44.763428v47.542858h184.173714c24.722286 0 44.836571 20.114286 44.836571 44.836571v704a44.836571 44.836571 0 0 1-44.836571 44.836571H128a44.836571 44.836571 0 0 1-44.836571-44.836571V192c0-24.722286 20.114286-44.763429 44.836571-44.763429h152.064v-47.616c0-22.235429 16.237714-40.740571 37.522286-44.251428l7.314285-0.585143c24.722286 0 44.763429 20.114286 44.763429 44.836571v47.542858h252.562286v-47.542858c0-22.235429 16.310857-40.740571 37.595428-44.251428z m184.173714 401.334857H172.763429v394.971429h678.326857v-394.971429z m-233.398857 61.074286a38.4 38.4 0 1 1 55.076572 53.467428l-175.908572 181.248a38.4 38.4 0 0 1-55.588571-0.512L339.382857 642.633143a38.4 38.4 0 0 1 55.954286-52.516572l74.605714 79.506286zM280.064 236.763429H172.690286v129.828571h678.4V236.836571H711.826286V256a44.836571 44.836571 0 0 1-37.522286 44.178286l-7.314286 0.585143a44.763429 44.763429 0 0 1-44.763428-44.763429v-19.236571H369.590857l0.073143 19.236571a44.836571 44.836571 0 0 1-37.522286 44.178286l-7.314285 0.585143A44.763429 44.763429 0 0 1 280.137143 256v-19.236571z"/>
</svg>
