<?xml version="1.0" standalone="no"?><!DOCTYPE svg PUBLIC "-//W3C//DTD SVG 1.1//EN"
        "http://www.w3.org/Graphics/SVG/1.1/DTD/svg11.dtd">
<svg t="1686552170788" class="icon" viewBox="0 0 1024 1024" version="1.1" xmlns="http://www.w3.org/2000/svg" p-id="4856"
     width="200" height="200">
    <path d="M512 512m-475.20731 0a475.20731 475.20731 0 1 0 950.41462 0 475.20731 475.20731 0 1 0-950.41462 0Z"
          fill="#FFFFFF" p-id="4857"></path>
    <path d="M512 998.046433c-129.827443 0-251.884529-50.557889-343.685633-142.358994C76.511456 763.884529 25.955374 641.827443 25.955374 512S76.511456 260.115471 168.314367 168.314367C260.115471 76.511456 382.172557 25.955374 512 25.955374s251.884529 50.556083 343.685633 142.358993c91.801104 91.801104 142.358993 213.858191 142.358993 343.685633s-50.557889 251.884529-142.358993 343.685633-213.858191 142.360799-343.685633 142.3608z m0-950.418232c-256.05509 0-464.369993 208.316709-464.369993 464.371799s208.316709 464.371799 464.369993 464.371799 464.371799-208.316709 464.371799-464.371799S768.05509 47.628201 512 47.628201z"
          p-id="4858"></path>
    <path d="M512 994.433994c-128.862921 0-250.011479-50.182195-341.131639-141.300549-91.120159-91.120159-141.300549-212.268717-141.300548-341.131639S79.748202 261.986714 170.868361 170.868361s212.268717-141.300549 341.131639-141.300548S762.011479 79.748202 853.131639 170.868361c91.118353 91.120159 141.300549 212.268717 141.300548 341.131639s-50.182195 250.011479-141.300548 341.131639c-91.120159 91.118353-212.268717 141.302355-341.131639 141.302355z m0-950.418232c-258.04735 0-467.982432 209.936888-467.982432 467.984238 0 258.04735 209.935082 467.984238 467.982432 467.984238 258.04735 0 467.984238-209.935082 467.984238-467.984238 0-258.04735-209.936888-467.984238-467.984238-467.984238z"
          p-id="4859"></path>
    <path d="M512 1005.27131c-131.756485 0-255.627016-51.309276-348.793622-144.474076C70.037966 767.627016 18.730496 643.756485 18.730496 512c0-131.758291 51.309276-255.628822 144.475882-348.795428s217.037137-144.475882 348.793622-144.475882 255.627016 51.309276 348.793622 144.475882c93.166606 93.168412 144.475882 217.038943 144.475882 348.795428 0 131.754679-51.309276 255.627016-144.474076 348.793622-93.168412 93.166606-217.040749 144.477689-348.795428 144.477688z m0-950.418231c-252.07057 0-457.145115 205.074545-457.145115 457.146921s205.074545 457.146921 457.145115 457.146921c252.072376 0 457.146921-205.074545 457.146921-457.146921S764.07057 54.853079 512 54.853079z"
          p-id="4860"></path>
    <path d="M693.725546 383.467617c0 27.981952-7.819124 53.79644-23.457372 77.441659-15.640054 23.697599-36.534401 44.115104-62.560217 61.308508-26.085421 17.242171-44.351719 34.433768-54.737481 51.62717-10.447173 17.243977-15.640054 29.042203-15.640054 35.494019v22.588581h-70.377535v-32.268111c0-19.360866 5.864795-38.167223 17.594383-56.467839 11.729589-18.251848 31.888805-38.167223 60.602276-59.695553 20.832935-15.024133 35.188768-30.655157 43.009698-46.788309 7.82093-16.134958 11.729589-31.713601 11.729589-46.788309 0-27.931378-7.819124-48.907004-23.459179-62.921461-15.638248-13.965689-37.815011-20.97382-66.46707-20.973821-28.713471 0-52.783151 9.177401-72.33367 27.427443-19.548713 18.302422-29.323973 47.897328-29.323973 88.735949h-89.928055c2.566638-60.199488 22.115351-104.870908 58.647946-133.911304 36.471183-29.042203 80.763297-43.562401 132.935946-43.562401 57.304119 0 102.26634 12.907244 134.890276 38.721733 32.564331 25.816295 48.874492 59.193424 48.874492 100.032046z m-148.576 419.48002h-86.01759v-77.441659h86.01759v77.441659z"
          p-id="4861"></path>
    <path d="M555.986863 813.784954h-107.692223v-99.116293h107.692223v99.116293z m-86.015784-21.674634h64.342956v-55.767025h-64.342956v55.767025z m78.19666-149.343643h-92.052169v-43.105428c0-21.360351 6.496971-42.326947 19.308486-62.314571 12.437627-19.357254 33.707668-40.388873 63.2231-62.518675l0.162559-0.11921c19.268749-13.895246 32.591424-28.270947 39.595944-42.724315 7.064124-14.570772 10.645858-28.722502 10.645857-42.061433 0-24.936666-6.495165-42.87965-19.853964-54.851272-13.524971-12.07819-33.458409-18.208498-59.234968-18.208499-26.029429 0-47.27057 8.017808-64.939008 24.512204-17.169922 16.075353-25.881319 43.269793-25.881319 80.815678v10.837317h-112.074111l0.482261-11.297903c2.696686-63.233937 23.80236-110.986767 62.731808-141.932725 38.259341-30.465504 85.257171-45.915905 139.680369-45.915905 59.536606 0 107.182869 13.813966 141.613025 41.060787 35.163481 27.873579 52.987254 64.384499 52.987254 108.526696 0 30.013949-8.496456 58.080793-25.25456 83.422052-16.320999 24.727144-38.403838 46.389134-65.625372 64.371856-24.658508 16.297518-41.963897 32.51195-51.435712 48.189935-13.400342 22.117157-14.079481 28.780301-14.07948 29.891126v33.422285z m-70.377536-21.674634h48.702902v-11.751264c0-5.915369 1.956136-15.934468 17.207853-41.111361 11.296097-18.69979 30.281269-36.709604 58.030219-55.051763 24.770494-16.362542 44.785212-35.956411 59.49145-58.237934 14.379313-21.739657 21.665602-45.784051 21.665603-71.472104 0-37.713862-14.643021-67.655562-44.768956-91.537396-30.501628-24.134704-73.623312-36.37726-128.15669-36.37726-49.39649 0-91.851678 13.862734-126.186104 41.203478-31.511305 25.048652-49.600593 63.564475-53.86327 114.595594h67.789222c1.699653-38.344233 12.618249-67.17872 32.519176-85.809874 21.578904-20.144766 48.403069-30.353518 79.73917-30.353518 31.263853 0 56.054215 7.98349 73.684723 23.728305 17.97369 16.106059 27.078842 39.991505 27.078842 71.006099 0 16.6407-4.311446 33.973182-12.815127 51.515185-8.579542 17.699145-24.170829 34.789593-46.342172 50.792698-27.402155 20.554777-46.882232 39.671804-57.903784 56.821858-10.680176 16.664181-15.874863 33.221795-15.874863 50.610269v21.428988z"
          p-id="4862"></path>
</svg>
