<?xml version="1.0" standalone="no"?><!DOCTYPE svg PUBLIC "-//W3C//DTD SVG 1.1//EN"
        "http://www.w3.org/Graphics/SVG/1.1/DTD/svg11.dtd">
<svg class="icon" width="200px" height="200.00px" viewBox="0 0 1024 1024" version="1.1"
     xmlns="http://www.w3.org/2000/svg">
    <path d="M919.04 176.859429c24.722286 0 44.836571 20.041143 44.836571 44.836571v650.825143a44.763429 44.763429 0 0 1-44.836571 44.763428H100.278857a44.836571 44.836571 0 0 1-44.836571-44.763428V221.622857c0-24.795429 20.041143-44.836571 44.836571-44.836571h818.761143z m-44.763429 89.6h-729.234285v561.225142h729.234285V266.459429z m-128 47.177142a44.836571 44.836571 0 0 1 45.933715 76.946286l-257.243429 153.6a44.763429 44.763429 0 0 1-45.641143 0.146286l-261.412571-153.6a44.763429 44.763429 0 1 1 45.348571-77.238857l238.592 140.141714z"/>
</svg>
